<?xml version="1.0" encoding="UTF-8"?>
<!DOCTYPE svg PUBLIC "-//W3C//DTD SVG 1.1//EN" "http://www.w3.org/Graphics/SVG/1.1/DTD/svg11.dtd">
<!-- Creator: CorelDRAW 2021 (64 Bit) -->
<svg xmlns="http://www.w3.org/2000/svg" xml:space="preserve" width="100mm" height="54.4mm" version="1.1" style="shape-rendering:geometricPrecision; text-rendering:geometricPrecision; image-rendering:optimizeQuality; fill-rule:evenodd; clip-rule:evenodd"
viewBox="0 0 514.52 279.9"
 xmlns:xlink="http://www.w3.org/1999/xlink"
 xmlns:xodm="http://www.corel.com/coreldraw/odm/2003">
 <defs>
  <style type="text/css">
   <![CDATA[
    .fil1 {fill:#090809}
    .fil0 {fill:#090809;fill-rule:nonzero}
   ]]>
  </style>
 </defs>
 <g id="Camada_x0020_1">
  <metadata id="CorelCorpID_0Corel-Layer"/>
  <g id="_2972500544336">
   <path class="fil0" d="M208.81 45.54c0,10.96 8.88,18.33 22.12,18.33 13.23,0 22.11,-7.37 22.11,-18.33 0,-10.96 -8.88,-18.33 -22.11,-18.33 -13.23,0 -22.12,7.37 -22.12,18.33zm24.01 121.54c22.12,-1.13 25.14,-18.52 25.14,-51.98 0,-19.85 2.65,-34.21 -7.94,-41.96 -13.42,-9.83 -48.77,-6.43 -40.64,13.42 6.43,15.88 2.08,51.04 2.08,62 0,14.18 7.56,19.28 21.36,18.52zm128.91 0c13.8,1.13 21.36,-4.35 21.36,-18.52 0,-19.28 -2.65,-51.03 3.78,-66.91 5.29,-12.85 -9.26,-20.41 -22.87,-20.41 -7.37,0 -14.36,2.27 -17.77,6.99l-0.57 0.95c-7.37,-6.99 -27.22,-6.99 -35.91,-6.05 -37.61,4.16 -45.36,38.75 -40.45,66.35 3.4,18.71 18.15,37.05 44.04,37.05 12.29,0 23.63,-4.72 31.94,-12.47 3.97,7.37 9.26,12.47 16.45,13.04zm-25.33 -64.08c-0.19,2.84 -0.19,6.24 0,9.83 -0.19,7.37 -8.32,12.66 -15.31,12.66 -4.73,0 -8.69,-2.27 -9.45,-8.13 -1.32,-11.72 5.67,-16.63 14.18,-16.63 3.4,0 7.18,0.76 10.58,2.27zm153.48 63.89c13.8,0.76 21.36,-4.35 21.36,-18.52 0,-10.96 -4.35,-51.03 2.08,-66.91 8.13,-19.85 -27.22,-23.25 -40.64,-13.42 -10.4,7.56 -8.13,24.57 -7.94,43.85 -0.57,17.96 -22.87,31.57 -19.66,2.46 4.35,-39.69 -1.7,-51.6 -23.63,-51.6 -22.12,0 -23.63,21.93 -22.87,54.25 0.76,30.62 9.45,55.19 44.8,49.15 9.64,-1.7 21.17,-11.15 24.95,-23.63 3.4,12.48 9.83,23.82 21.55,24.38z"/>
   <path class="fil0" d="M18.76 279.79c15.26,-0.72 18.57,-24.04 19,-36.13 1.01,-12.67 12.95,-14.54 12.23,-3.17 -1.87,30.37 1.3,39.29 17.99,39.29 15.69,0 17.7,-14.39 17.42,-36.27l0.14 1.44c0.29,-13.82 13.53,-16.26 12.23,-4.46 -2.3,21.45 1.3,39.29 17.99,39.29 20.01,0 18.42,-41.45 16.98,-55.99 -1.44,-14.68 -9.07,-21.45 -21.3,-23.17 -10.51,-1.58 -22.02,2.45 -27.78,14.82 -2.88,-8.92 -10.36,-13.53 -20.01,-14.82 -10.94,-1.58 -23.32,3.31 -26.48,14.25 -0.86,-3.89 -2.45,-6.91 -5.33,-9.07 -10.22,-7.48 -37.13,-4.89 -30.94,10.22 4.89,12.09 1.58,41.31 1.58,49.66 0,10.79 5.76,14.68 16.26,14.11zm192.87 0c10.51,0.86 16.26,-3.31 16.26,-14.11 0,-14.68 -2.02,-38.86 2.88,-50.95 4.03,-9.79 -7.05,-15.54 -17.42,-15.54 -5.61,0 -10.94,1.73 -13.53,5.33l-0.43 0.72c-5.61,-5.33 -20.73,-5.33 -27.35,-4.61 -28.64,3.17 -34.54,29.51 -30.8,50.52 2.59,14.25 13.82,28.21 33.54,28.21 9.36,0 17.99,-3.6 24.32,-9.5 3.02,5.61 7.05,9.5 12.52,9.93zm-19.29 -48.79c-0.14,2.16 -0.14,4.75 0,7.48 -0.14,5.61 -6.33,9.64 -11.66,9.64 -3.6,0 -6.62,-1.73 -7.2,-6.19 -1.01,-8.92 4.32,-12.67 10.79,-12.67 2.59,0 5.47,0.58 8.06,1.73zm66.78 48.79c16.55,-0.86 19.14,-28.5 19.14,-40.88 1.58,-11.66 14.97,-8.92 14.97,-2.59 0.14,19.29 41.6,13.67 34.11,-18.28 -2.45,-10.65 -9.93,-15.98 -20.44,-17.42 -10.8,-1.44 -25.19,3.17 -29.22,13.82 -0.86,-4.17 -2.3,-7.63 -5.47,-9.93 -10.22,-7.48 -37.13,-4.89 -30.94,10.22 4.89,12.09 1.58,42.32 1.58,50.95 0,10.79 5.76,14.68 16.26,14.11zm93.12 0c16.55,-0.86 19.14,-28.5 19.14,-40.88 1.58,-11.66 14.97,-8.92 14.97,-2.59 0.14,19.29 41.6,13.67 34.11,-18.28 -2.45,-10.65 -9.93,-15.98 -20.44,-17.42 -10.8,-1.44 -25.19,3.17 -29.22,13.82 -0.86,-4.17 -2.3,-7.63 -5.47,-9.93 -10.22,-7.48 -37.13,-4.89 -30.94,10.22 4.89,12.09 1.58,42.32 1.58,50.95 0,10.79 5.76,14.68 16.26,14.11zm113.27 -81.32c-26.34,0 -40.59,17.7 -40.3,42.36 0.43,25.72 21.73,38.96 43.04,38.96 21.59,0 43.32,-13.67 43.32,-41.67 0,-15.76 -11.08,-39.65 -46.06,-39.65zm14.25 37.78c0,7.15 -4.89,9.71 -9.93,9.71 -5.18,0 -10.36,-2.57 -10.79,-6.14 -0.72,-6.57 6.33,-10.55 12.38,-10.55 4.46,0 8.35,2.14 8.35,6.98z"/>
   <path class="fil1" d="M113.41 53.29c7.47,-0.24 6.35,10.66 2.66,12.36 -6.17,2.85 -6.65,-9.1 -2.66,-12.36zm-36.07 0.24c6,-2.22 6.58,12.1 1.83,12.52 -5.96,0.53 -6.77,-10.69 -1.83,-12.52zm-77.28 79.21l0 11.47c1.77,3.67 1.78,11.95 6.14,15.47 1.49,1.21 4.85,3.48 6.6,4.39 2.45,1.27 5.81,1.9 7.73,3.03l151.97 0c1.92,-1.13 5.29,-1.76 7.73,-3.03 1.75,-0.91 5.1,-3.18 6.6,-4.39 4.36,-3.52 4.37,-11.8 6.14,-15.47l0 -11.47c-0.56,-1.41 -1.28,-7.68 -1.79,-9.98 -0.67,-2.97 -1.53,-6.08 -2.44,-8.96 -1.75,-5.55 -3.97,-11.71 -6.39,-16.87 -2.5,-5.32 -4.76,-10.55 -7.45,-15.82 -2.39,-4.69 -5.12,-10.6 -7.86,-15 -15.37,-24.65 -21.21,-37.5 -26.48,-66.12l-2.48 0c-2.7,3.32 -10.58,6.41 -17.34,14.08 -0.9,1.02 -4.03,4.66 -4.79,5.26 -18.61,-3.53 -20.27,-3.53 -38.87,0 -0.85,-0.67 -4.02,-4.4 -4.99,-5.48 -6.6,-7.41 -14.47,-10.57 -17.14,-13.85l-2.48 0c-2.36,12.8 -4.9,24.74 -10.18,36.32 -4.34,9.53 -10.61,20.68 -16.3,29.8 -2.79,4.47 -5.58,10.51 -8,15.28 -2.67,5.25 -4.95,10.49 -7.44,15.81 -3.26,6.98 -7.08,18.11 -8.77,25.9 -0.49,2.27 -1.13,8.17 -1.72,9.63z"/>
  </g>
 </g>
</svg>
