<?xml version="1.0" encoding="UTF-8"?>
<!DOCTYPE svg PUBLIC "-//W3C//DTD SVG 1.1//EN" "http://www.w3.org/Graphics/SVG/1.1/DTD/svg11.dtd">
<!-- Creator: CorelDRAW 2021 (64 Bit) -->
<svg xmlns="http://www.w3.org/2000/svg" xml:space="preserve" width="40mm" height="34.6491mm" version="1.1" 
fill="#090809"
style="shape-rendering:geometricPrecision; text-rendering:geometricPrecision; image-rendering:optimizeQuality; fill-rule:evenodd; clip-rule:evenodd"
viewBox="0 0 89.93 77.9"
 xmlns:xlink="http://www.w3.org/1999/xlink"
 xmlns:xodm="http://www.corel.com/coreldraw/odm/2003">
 <defs>
  <style type="text/css">
   <![CDATA[
    .fil0 {fill:#090809}
   ]]>
  </style>
 </defs>
 <g id="Camada_x0020_1">
  <metadata id="CorelCorpID_0Corel-Layer"/>
  <path class="fil0" d="M52.84 24.84c3.48,-0.11 2.96,4.97 1.24,5.76 -2.88,1.33 -3.1,-4.24 -1.24,-5.76zm-16.82 0.11c2.8,-1.03 3.07,5.64 0.85,5.84 -2.78,0.25 -3.16,-4.98 -0.85,-5.84zm-36.03 36.93l0 5.35c0.83,1.71 0.83,5.57 2.86,7.21 0.7,0.56 2.26,1.62 3.08,2.05 1.14,0.59 2.71,0.89 3.61,1.41l70.84 0c0.9,-0.53 2.46,-0.82 3.61,-1.41 0.82,-0.42 2.38,-1.48 3.08,-2.05 2.03,-1.64 2.04,-5.5 2.86,-7.21l0 -5.35c-0.26,-0.66 -0.6,-3.58 -0.84,-4.65 -0.31,-1.38 -0.72,-2.83 -1.14,-4.18 -0.82,-2.59 -1.85,-5.46 -2.98,-7.86 -1.17,-2.48 -2.22,-4.92 -3.47,-7.38 -1.11,-2.18 -2.39,-4.94 -3.66,-6.99 -7.17,-11.49 -9.89,-17.48 -12.34,-30.82l-1.15 0c-1.26,1.55 -4.93,2.99 -8.08,6.56 -0.42,0.47 -1.88,2.17 -2.23,2.45 -8.67,-1.64 -9.45,-1.64 -18.12,0 -0.4,-0.31 -1.87,-2.05 -2.33,-2.56 -3.08,-3.46 -6.75,-4.93 -7.99,-6.46l-1.15 0c-1.1,5.97 -2.28,11.53 -4.74,16.93 -2.02,4.44 -4.95,9.64 -7.6,13.89 -1.3,2.09 -2.6,4.9 -3.73,7.12 -1.24,2.45 -2.31,4.89 -3.47,7.37 -1.52,3.25 -3.3,8.44 -4.09,12.08 -0.23,1.06 -0.53,3.81 -0.8,4.49z"/>
 </g>
</svg>
